<svg width="24.000000" height="24.000000" viewBox="0 0 24 24" fill="none" xmlns="http://www.w3.org/2000/svg" xmlns:xlink="http://www.w3.org/1999/xlink">
	<desc>
			Created with Pixso.
	</desc>
	<defs/>
	<path d="M12 2C13.06 2 14.07 2.42 14.82 3.17C15.57 3.92 16 4.93 16 6L18.03 6C18.55 5.99 19.05 6.2 19.42 6.56C19.79 6.92 20.01 7.41 20.03 7.92L20.46 19.92C20.47 20.19 20.42 20.46 20.33 20.71C20.23 20.96 20.08 21.19 19.9 21.38C19.71 21.58 19.49 21.73 19.24 21.84C18.99 21.94 18.73 21.99 18.46 22L5.53 22C5.26 21.99 5 21.94 4.75 21.84C4.5 21.73 4.28 21.58 4.09 21.38C3.91 21.19 3.76 20.96 3.66 20.71C3.57 20.46 3.52 20.19 3.53 19.92L3.96 7.92C3.98 7.41 4.2 6.92 4.57 6.56C4.94 6.2 5.44 5.99 5.96 6L8 6C8 4.93 8.42 3.92 9.17 3.17C9.92 2.42 10.93 2 12 2ZM8 8L5.96 8L5.53 20L18.46 20L18.03 8L16 8L16 9C15.99 9.25 15.9 9.5 15.72 9.68C15.55 9.87 15.31 9.98 15.05 9.99C14.8 10.01 14.55 9.92 14.35 9.76C14.16 9.6 14.03 9.37 14 9.11L14 9L14 8L10 8L10 9C9.99 9.25 9.9 9.5 9.72 9.68C9.55 9.87 9.31 9.98 9.05 9.99C8.8 10.01 8.55 9.92 8.35 9.76C8.16 9.6 8.03 9.37 8 9.11L8 9L8 8ZM12 4C11.49 3.99 11 4.19 10.63 4.53C10.26 4.87 10.04 5.34 10 5.85L10 6L14 6C14 5.46 13.78 4.96 13.41 4.58C13.03 4.21 12.53 4 12 4Z" fill="#5C5C5E" fill-opacity="1.000000" fill-rule="nonzero"/>
</svg>
